<svg width="32" height="32" viewBox="0 0 32 32" xmlns="http://www.w3.org/2000/svg">
  <defs>
    <radialGradient id="brainGradient" cx="50%" cy="50%" r="60%">
      <stop offset="0%" style="stop-color:#ec4899;stop-opacity:1" />
      <stop offset="50%" style="stop-color:#8b5cf6;stop-opacity:1" />
      <stop offset="100%" style="stop-color:#3b82f6;stop-opacity:1" />
    </radialGradient>
  </defs>

  <!-- Brain shape -->
  <path d="M16 4c-6.627 0-12 5.373-12 12 0 1.5.3 3 .8 4.3.2.5.7.7 1.2.7h20c.5 0 1-.2 1.2-.7.5-1.3.8-2.8.8-4.3 0-6.627-5.373-12-12-12z" fill="url(#brainGradient)"/>

  <!-- Brain wrinkles/folds -->
  <path d="M10 12c0-.5.5-1 1-1s1 .5 1 1-.5 1-1 1-.5-.5-1-1zm6 0c0-.5.5-1 1-1s1 .5 1 1-.5 1-1 1-1-.5-1-1zm4 3c0-.5.5-1 1-1s1 .5 1 1-.5 1-1 1-1-.5-1-1zm-12 0c0-.5.5-1 1-1s1 .5 1 1-.5 1-1 1-1-.5-1-1z" fill="#ffffff" opacity="0.8"/>

  <!-- Eyes -->
  <circle cx="12" cy="18" r="1.5" fill="#ffffff"/>
  <circle cx="20" cy="18" r="1.5" fill="#ffffff"/>
  <circle cx="12" cy="18" r="0.8" fill="#000000"/>
  <circle cx="20" cy="18" r="0.8" fill="#000000"/>

  <!-- Mouth -->
  <path d="M14 22c0 1.1.9 2 2 2s2-.9 2-2" stroke="#ffffff" stroke-width="1.5" fill="none" stroke-linecap="round"/>
</svg>
